<svg width="33" height="33" viewBox="0 0 33 33" fill="none" xmlns="http://www.w3.org/2000/svg">
  <path d="M31.7103 0.0297852H2.25117C1.54271 0.0297852 0.970337 0.602157 0.970337 1.31062V30.7697C0.970337 31.4782 1.54271 32.0506 2.25117 32.0506H31.7103C32.4187 32.0506 32.9911 31.4782 32.9911 30.7697V1.31062C32.9911 0.602157 32.4187 0.0297852 31.7103 0.0297852ZM28.0119 9.37585H25.4542C23.4489 9.37585 23.0607 10.3285 23.0607 11.7294V14.8154H27.8478L27.2234 19.6465H23.0607V32.0506H18.0694V19.6505H13.8947V14.8154H18.0694V11.2531C18.0694 7.11838 20.5951 4.86492 24.2855 4.86492C26.0546 4.86492 27.5716 4.99701 28.0159 5.05705V9.37585H28.0119Z" fill="white"/>
</svg>
