<svg width="33" height="33" viewBox="0 0 33 33" fill="none" xmlns="http://www.w3.org/2000/svg">
  <path d="M31.6981 0.0297852H2.23896C1.5305 0.0297852 0.95813 0.602157 0.95813 1.31062V30.7697C0.95813 31.4782 1.5305 32.0506 2.23896 32.0506H31.6981C32.4065 32.0506 32.9789 31.4782 32.9789 30.7697V1.31062C32.9789 0.602157 32.4065 0.0297852 31.6981 0.0297852ZM10.4563 27.3155H5.70521V12.0336H10.4563V27.3155ZM8.08275 9.94422C7.53811 9.94422 7.00569 9.78271 6.55283 9.48012C6.09997 9.17753 5.74701 8.74745 5.53859 8.24426C5.33016 7.74107 5.27562 7.18738 5.38188 6.65319C5.48813 6.11901 5.75041 5.62833 6.13553 5.24321C6.52066 4.85809 7.01133 4.59581 7.54552 4.48956C8.0797 4.3833 8.63339 4.43784 9.13658 4.64626C9.63977 4.85469 10.0699 5.20765 10.3724 5.66051C10.675 6.11337 10.8365 6.64578 10.8365 7.19043C10.8325 8.71142 9.59974 9.94422 8.08275 9.94422ZM28.2438 27.3155H23.4968V19.8827C23.4968 18.1095 23.4647 15.832 21.0272 15.832C18.5576 15.832 18.1773 17.7613 18.1773 19.7546V27.3155H13.4342V12.0336H17.9892V14.1229H18.0532C18.6856 12.9222 20.2346 11.6533 22.5481 11.6533C27.3593 11.6533 28.2438 14.8194 28.2438 18.9341V27.3155Z" fill="white"/>
</svg>
